
<svg xmlns="http://www.w3.org/2000/svg" viewBox="0 0 24 24" fill="none" stroke="currentColor" stroke-width="2" stroke-linecap="round" stroke-linejoin="round" class="lucide lucide-flame">
  <path d="M8.5 14.5A2.5 2.5 0 0 0 11 12c0-1.38-.5-2-1-3s.58-1.41 1-2c.58-.79 1-1.61 1-3 0-1.87-1.14-4-3-4-1.87 0-3 2.13-3 4.5 0 1.87.93 2.47 1.21 2.83.38.47.22.83-.46.88-.73.05-1.22.32-1.74.78-.76.67-1 1.68-1 2.82C4 14.93 6.07 17 8.5 17c1.5 0 2.5-.83 2.5-2.5 0-1.93-1.58-2.5-2.5-2.5"></path>
  <path d="M12.5 17c1.5 0 2.5-.83 2.5-2.5 0-1.93-1.58-2.5-2.5-2.5a2.5 2.5 0 0 0-2.5 2.5c0 1.67 1 2.5 2.5 2.5"></path>
  <path d="M12.5 11.5c1.5 0 2.5-.83 2.5-2.5 0-1.93-1.58-2.5-2.5-2.5"></path>
  <path d="M19.09 7.5c1.91 0 3.41-1.57 3.41-3.5 0-3.22-3-5-4.5-5s-4.5 1.78-4.5 5c0 1.5 1 2.5 2.5 2.5 1 0 1.5-1 1.5-2.5 0-2 1.09-3.5 3 0 .86 1.5.09 3 .09 3 .09 0 0 .5-1.5.5" opacity=".5"></path>
  <path d="M20.5 17c1.5 0 2.5-.83 2.5-2.5 0-1.93-1.58-2.5-2.5-2.5a2.5 2.5 0 0 0-2.5 2.5c0 1.67 1 2.5 2.5 2.5M20.5 11.5c1.5 0 2.5-.83 2.5-2.5 0-1.93-1.58-2.5-2.5-2.5"></path>
</svg>
